<svg xmlns="http://www.w3.org/2000/svg" xmlns:xlink="http://www.w3.org/1999/xlink" width="500" zoomAndPan="magnify" viewBox="0 0 375 374.999991" height="500" preserveAspectRatio="xMidYMid meet" version="1.0"><defs><g/><clipPath id="90d7398398"><path d="M 71.242188 5.496094 L 303.742188 5.496094 L 303.742188 369.246094 L 71.242188 369.246094 Z M 71.242188 5.496094 " clip-rule="nonzero"/></clipPath><clipPath id="9ed7543d22"><path d="M 71.242188 122.007812 C 71.242188 57.800781 123.292969 5.753906 187.496094 5.753906 C 251.703125 5.753906 303.753906 57.800781 303.753906 122.007812 L 303.753906 252.992188 C 303.753906 317.195312 251.703125 369.246094 187.496094 369.246094 C 123.292969 369.246094 71.242188 317.195312 71.242188 252.992188 Z M 71.242188 122.007812 " clip-rule="nonzero"/></clipPath><clipPath id="72aed539b8"><path d="M 76.128906 10.554688 L 298.878906 10.554688 L 298.878906 364.550781 L 76.128906 364.550781 Z M 76.128906 10.554688 " clip-rule="nonzero"/></clipPath><clipPath id="e57751fd56"><path d="M 76.128906 118.199219 C 76.128906 58.683594 125.988281 10.441406 187.496094 10.441406 C 249.003906 10.441406 298.867188 58.683594 298.867188 118.199219 L 298.867188 256.792969 C 298.867188 316.304688 249.003906 364.550781 187.496094 364.550781 C 125.988281 364.550781 76.128906 316.304688 76.128906 256.792969 Z M 76.128906 118.199219 " clip-rule="nonzero"/></clipPath><clipPath id="c0d2646b8a"><path d="M 67.195312 0 L 307.804688 0 L 307.804688 375 L 67.195312 375 Z M 67.195312 0 " clip-rule="nonzero"/></clipPath><clipPath id="8dee317be3"><path d="M 67.195312 120.304688 C 67.195312 53.863281 121.058594 0 187.5 0 C 253.941406 0 307.804688 53.863281 307.804688 120.304688 L 307.804688 254.695312 C 307.804688 321.136719 253.941406 375 187.5 375 C 121.058594 375 67.195312 321.136719 67.195312 254.695312 Z M 67.195312 120.304688 " clip-rule="nonzero"/></clipPath><clipPath id="2f285c3e9c"><path d="M 134 127 L 245 127 L 245 283 L 134 283 Z M 134 127 " clip-rule="nonzero"/></clipPath><clipPath id="3eb38a6bcf"><path d="M 251.398438 131.691406 L 240.113281 288.785156 L 130.894531 280.9375 L 142.179688 123.84375 Z M 251.398438 131.691406 " clip-rule="nonzero"/></clipPath><clipPath id="573af4307b"><path d="M 251.398438 131.691406 L 240.113281 288.785156 L 130.894531 280.9375 L 142.179688 123.84375 Z M 251.398438 131.691406 " clip-rule="nonzero"/></clipPath><clipPath id="d35b0c4085"><path d="M 144.675781 97.25 L 230.175781 97.25 L 230.175781 276.019531 L 144.675781 276.019531 Z M 144.675781 97.25 " clip-rule="nonzero"/></clipPath></defs><rect x="-37.5" width="450" fill="#ffffff" y="-37.499999" height="449.999989" fill-opacity="1"/><rect x="-37.5" width="450" fill="#fffaf7" y="-37.499999" height="449.999989" fill-opacity="1"/><g clip-path="url(#90d7398398)"><g clip-path="url(#9ed7543d22)"><path stroke-linecap="butt" transform="matrix(0, -0.75, 0.75, 0, 71.242632, 369.245513)" fill="none" stroke-linejoin="miter" d="M 329.650267 -0.000592429 C 415.259642 -0.000592429 484.655476 69.400449 484.655476 155.004616 C 484.655476 240.613991 415.259642 310.015033 329.650267 310.015033 L 155.004434 310.015033 C 69.400267 310.015033 -0.000774929 240.613991 -0.000774929 155.004616 C -0.000774929 69.400449 69.400267 -0.000592429 155.004434 -0.000592429 Z M 329.650267 -0.000592429 " stroke="#1e1815" stroke-width="2" stroke-opacity="1" stroke-miterlimit="4"/></g></g><g clip-path="url(#72aed539b8)"><g clip-path="url(#e57751fd56)"><path stroke-linecap="butt" transform="matrix(0, -0.75, 0.75, 0, 76.127337, 364.549166)" fill="none" stroke-linejoin="miter" d="M 328.46664 0.0020922 C 407.820816 0.0020922 472.143742 66.481267 472.143742 148.491695 C 472.143742 230.502122 407.820816 296.986506 328.46664 296.986506 L 143.674949 296.986506 C 64.32598 296.986506 -0.00215305 230.502122 -0.00215305 148.491695 C -0.00215305 66.481267 64.32598 0.0020922 143.674949 0.0020922 Z M 328.46664 0.0020922 " stroke="#1e1815" stroke-width="2" stroke-opacity="1" stroke-miterlimit="4"/></g></g><g clip-path="url(#c0d2646b8a)"><g clip-path="url(#8dee317be3)"><path stroke-linecap="butt" transform="matrix(0, -0.75, 0.75, 0, 67.195313, 374.999625)" fill="none" stroke-linejoin="miter" d="M 339.593272 -0.000000516677 C 428.18182 -0.000000516677 499.999533 71.817713 499.999533 160.40626 C 499.999533 248.994808 428.18182 320.812521 339.593272 320.812521 L 160.405761 320.812521 C 71.817213 320.812521 -0.000500033 248.994808 -0.000500033 160.40626 C -0.000500033 71.817713 71.817213 -0.000000516677 160.405761 -0.000000516677 Z M 339.593272 -0.000000516677 " stroke="#1e1815" stroke-width="2" stroke-opacity="1" stroke-miterlimit="4"/></g></g><g clip-path="url(#2f285c3e9c)"><g clip-path="url(#3eb38a6bcf)"><g clip-path="url(#573af4307b)"><path fill="#fbe2ed" d="M 141.171875 266.304688 C 149.695312 278.609375 163.476562 283.621094 176.4375 282.136719 C 187.464844 280.871094 197.421875 275.597656 206.535156 268.804688 C 212.332031 265.492188 217.820312 261.53125 222.792969 256.734375 C 232.90625 246.988281 240.933594 233.773438 243.582031 218.503906 C 246.28125 202.9375 243.144531 185.726562 233.691406 173.46875 C 228.785156 167.109375 222.789062 162.117188 217.386719 156.375 C 212.265625 150.929688 207.808594 144.699219 202.640625 139.316406 C 197.417969 133.875 191.433594 129.652344 184.5625 128.019531 C 177.753906 126.402344 170.558594 127.246094 164.371094 130.605469 C 158.636719 133.722656 153.78125 138.777344 150.527344 145.066406 C 146.988281 151.917969 145.714844 159.921875 145.285156 167.898438 C 144.84375 176.1875 145.203125 184.550781 144.4375 192.808594 C 143.621094 201.65625 141.09375 209.964844 138.761719 218.335938 C 136.421875 226.730469 134.355469 235.34375 134.5 244.328125 C 134.625 252.265625 136.800781 259.996094 141.171875 266.304688 Z M 141.171875 266.304688 " fill-opacity="1" fill-rule="nonzero"/></g></g></g><path fill="#212121" d="M 177.097656 114.875 C 176.964844 114.875 176.832031 114.824219 176.726562 114.726562 C 175.457031 113.542969 174.136719 112.386719 172.804688 111.296875 C 172.574219 111.109375 172.539062 110.765625 172.730469 110.535156 C 172.917969 110.304688 173.257812 110.269531 173.492188 110.457031 C 174.84375 111.5625 176.179688 112.734375 177.464844 113.933594 C 177.683594 114.140625 177.695312 114.484375 177.492188 114.699219 C 177.386719 114.8125 177.242188 114.875 177.097656 114.875 " fill-opacity="1" fill-rule="nonzero"/><g clip-path="url(#d35b0c4085)"><path fill="#212121" d="M 198.941406 98.335938 C 198.902344 98.335938 198.867188 98.335938 198.832031 98.339844 C 198.128906 98.410156 195.710938 99.542969 193.992188 111.296875 C 193.035156 117.839844 193.183594 124.171875 193.382812 129.433594 C 194.0625 128 194.234375 126.0625 194.449219 123.609375 C 194.808594 119.523438 195.304688 113.925781 198.691406 107.253906 L 198.886719 106.878906 C 199.859375 104.984375 201.878906 101.042969 200.503906 99.21875 C 200.160156 98.765625 199.53125 98.335938 198.941406 98.335938 Z M 187.476562 139.480469 C 187.210938 139.480469 186.960938 139.523438 186.722656 139.617188 C 186 139.902344 185.410156 140.605469 185.433594 141.148438 C 185.449219 141.492188 185.710938 141.792969 185.925781 141.988281 C 186.679688 142.667969 188.074219 143.109375 189.230469 143.039062 C 189.242188 143.039062 190.273438 142.964844 191.089844 142.46875 C 191.320312 142.328125 191.515625 142.117188 191.679688 141.847656 C 190.421875 140.59375 188.8125 139.480469 187.476562 139.480469 Z M 186.761719 135.972656 C 186.695312 135.972656 186.632812 135.972656 186.566406 135.976562 C 178.996094 136.125 173.007812 143.5625 173.097656 149.621094 C 173.164062 154.0625 176.050781 158.410156 180.828125 161.253906 C 184.734375 163.578125 188.914062 164.210938 191.488281 162.863281 C 195.621094 160.695312 195.878906 151.980469 194.472656 146.785156 C 194.039062 145.171875 193.367188 143.816406 192.429688 142.671875 C 192.210938 142.96875 191.953125 143.210938 191.652344 143.394531 C 190.601562 144.035156 189.351562 144.117188 189.296875 144.121094 C 187.851562 144.207031 186.167969 143.664062 185.203125 142.792969 C 184.671875 142.316406 184.378906 141.765625 184.355469 141.199219 C 184.300781 140.042969 185.332031 139 186.324219 138.609375 C 188.429688 137.78125 190.773438 139.503906 192.113281 140.757812 C 192.328125 139.941406 192.433594 138.886719 192.476562 137.652344 C 190.652344 136.550781 188.710938 135.972656 186.761719 135.972656 Z M 162.695312 265.988281 C 168.871094 267.992188 178.792969 268.242188 193.933594 268.628906 C 212.628906 269.105469 215.84375 267.242188 217.882812 264.953125 C 219.367188 263.285156 219.492188 262.089844 219.894531 258.136719 C 220.179688 255.328125 220.613281 251.089844 221.792969 244.402344 C 222.179688 242.21875 222.578125 240.191406 222.929688 238.398438 C 224.21875 231.824219 225.074219 227.480469 223.207031 226.242188 C 222.382812 225.695312 221.1875 225.808594 220.421875 226.148438 C 218.074219 227.175781 217.769531 231.257812 217.210938 238.660156 L 217.046875 240.84375 C 215.644531 258.84375 214.304688 262.195312 211.832031 262.898438 C 211.519531 262.988281 210.4375 263.226562 209.480469 262.652344 C 206.957031 261.144531 207.632812 255.78125 209.117188 244.03125 C 209.460938 241.304688 209.84375 238.25 210.238281 234.851562 C 210.445312 233.070312 210.925781 228.902344 209.121094 227.757812 C 208.523438 227.378906 207.660156 227.304688 206.96875 227.574219 C 204.65625 228.480469 204.421875 233.707031 204.175781 239.238281 C 203.417969 256.175781 202.992188 263.085938 200.003906 264.441406 C 198.632812 265.066406 196.742188 264.875 195.507812 263.992188 C 192.570312 261.886719 193.179688 256.460938 194.8125 241.972656 C 195.085938 239.550781 195.386719 236.882812 195.703125 233.945312 C 195.914062 231.972656 196.410156 227.351562 194.214844 225.90625 C 193.671875 225.550781 192.777344 225.28125 192.128906 225.449219 C 189.4375 226.164062 189.328125 235.21875 189.234375 243.207031 C 189.109375 253.320312 188.996094 262.871094 184.859375 264.042969 C 183.800781 264.34375 182.886719 263.980469 182.542969 263.8125 C 179.289062 262.210938 179.84375 255.632812 181.328125 238.050781 L 181.339844 237.894531 C 182.035156 229.675781 182.496094 224.25 180.042969 222.855469 C 179.296875 222.4375 178.089844 222.234375 177.0625 222.738281 C 174.8125 223.839844 174.742188 228.210938 174.597656 237.777344 C 174.550781 240.785156 174.5 244.1875 174.371094 248.226562 C 174.148438 255.417969 173.777344 260.574219 171.03125 261.425781 C 170.292969 261.65625 169.425781 261.535156 168.589844 261.085938 C 165.527344 259.445312 165.710938 254.121094 166.039062 244.453125 C 166.136719 241.625 166.246094 238.417969 166.292969 234.808594 C 166.421875 225.15625 166.082031 220.65625 163.730469 219.496094 C 162.371094 218.828125 160.585938 219.242188 159.53125 220 C 156.808594 221.949219 157.351562 227.214844 158.457031 235.640625 C 159.214844 241.398438 159.675781 244.410156 160.125 247.320312 C 160.558594 250.152344 161.007812 253.082031 161.730469 258.535156 C 161.933594 260.074219 162.097656 261.382812 162.238281 262.511719 C 162.414062 263.949219 162.554688 265.074219 162.695312 265.988281 Z M 186.808594 276.019531 C 185.054688 276.019531 183.308594 275.992188 181.570312 275.941406 C 170.792969 275.636719 166.21875 274.390625 163.449219 271.007812 C 162.480469 269.828125 162.078125 268.820312 161.726562 266.796875 C 159.085938 265.855469 157.113281 264.566406 155.6875 262.773438 C 153.875 260.492188 153.777344 258.929688 153.523438 254.753906 C 153.316406 251.429688 153.011719 246.40625 151.675781 237.859375 C 150.925781 233.042969 150.234375 229.371094 149.679688 226.417969 C 148.3125 219.171875 147.851562 216.734375 149.863281 214.484375 C 153.210938 210.738281 161.527344 212.261719 180.015625 216.074219 C 184.503906 216.996094 187.699219 217.765625 190.269531 218.382812 C 194.648438 219.433594 197.542969 220.125 202.851562 220.707031 C 215.390625 222.082031 222.121094 222.59375 226.160156 218.183594 C 230.101562 213.882812 230.511719 205.675781 226.992188 201.613281 C 223.917969 198.066406 218.304688 198.179688 215.910156 198.230469 C 202.472656 198.5 190.648438 201.75 180.21875 204.613281 C 167.332031 208.152344 157.152344 210.949219 150.398438 205.917969 C 149.523438 205.265625 145.132812 201.746094 144.707031 196.492188 C 144.199219 190.183594 149.710938 185.226562 150.339844 184.679688 C 158.445312 177.679688 173.414062 182.4375 187.890625 187.035156 C 200.398438 191.011719 212.210938 194.765625 217.160156 189.828125 C 220.40625 186.589844 220.425781 183.019531 220.421875 182.984375 C 220.617188 179.003906 216.976562 176.050781 215.78125 175.082031 L 215.652344 174.976562 C 209.058594 169.582031 197.152344 172.4375 185.636719 175.203125 C 174.65625 177.835938 164.28125 180.324219 159.429688 175.234375 C 157.179688 172.871094 156.027344 170.152344 156.1875 167.589844 C 156.382812 164.441406 158.519531 161.636719 160.546875 160.257812 C 165.300781 157.023438 171.632812 159.945312 178.339844 163.039062 C 184.816406 166.023438 191.511719 169.109375 196.46875 166.113281 C 199.890625 164.039062 200.863281 160.039062 201.226562 158.535156 C 202.507812 153.257812 200.734375 146.429688 196.816406 141.546875 C 195.796875 140.273438 194.691406 139.207031 193.53125 138.359375 C 193.457031 139.679688 193.289062 140.777344 192.972656 141.636719 C 194.164062 142.976562 194.996094 144.570312 195.519531 146.5 C 196.796875 151.226562 197.070312 161.160156 191.988281 163.820312 C 189.09375 165.339844 184.492188 164.695312 180.277344 162.183594 C 175.171875 159.148438 172.085938 154.457031 172.015625 149.636719 C 171.898438 141.632812 179.867188 135.027344 186.546875 134.890625 C 188.582031 134.851562 190.59375 135.375 192.5 136.417969 C 192.503906 135.140625 192.460938 133.710938 192.402344 132.183594 C 192.234375 132.292969 192.050781 132.398438 191.859375 132.5 C 185.160156 135.996094 174.902344 126.90625 173.753906 125.859375 C 173.488281 125.617188 167.25 119.820312 165.742188 109.964844 C 165.292969 107.027344 165.585938 105.3125 166.6875 104.40625 C 167.933594 103.382812 169.941406 103.597656 173.625 105.144531 C 179.28125 107.519531 185.6875 110.210938 188.972656 117.238281 C 190.773438 121.09375 191.292969 125.484375 190.644531 127.167969 C 190.476562 127.609375 190.226562 127.902344 189.898438 128.039062 C 188.828125 128.488281 187.859375 127.273438 185.71875 124.609375 C 184.550781 123.148438 183.09375 121.335938 181.1875 119.242188 C 180.984375 119.019531 181 118.679688 181.222656 118.476562 C 181.445312 118.273438 181.785156 118.292969 181.988281 118.511719 C 183.917969 120.628906 185.386719 122.460938 186.566406 123.929688 C 187.792969 125.460938 189.058594 127.039062 189.476562 127.039062 C 189.476562 127.039062 189.480469 127.039062 189.484375 127.039062 C 190.117188 126.730469 190.082031 122.175781 187.992188 117.695312 C 184.882812 111.046875 178.679688 108.441406 173.207031 106.144531 C 169.144531 104.4375 167.957031 104.765625 167.375 105.242188 C 166.613281 105.871094 166.433594 107.320312 166.8125 109.804688 C 168.261719 119.28125 174.421875 125.003906 174.484375 125.058594 C 174.917969 125.457031 185.207031 134.75 191.359375 131.539062 C 191.738281 131.339844 192.066406 131.109375 192.351562 130.851562 C 192.351562 130.847656 192.351562 130.84375 192.351562 130.839844 C 192.132812 125.28125 191.863281 118.355469 192.917969 111.140625 C 194.230469 102.175781 196.183594 97.507812 198.726562 97.261719 C 199.796875 97.15625 200.820312 97.84375 201.367188 98.566406 C 203.15625 100.933594 201.003906 105.121094 199.847656 107.371094 L 199.65625 107.746094 C 196.363281 114.230469 195.902344 119.484375 195.527344 123.707031 C 195.238281 126.996094 195.011719 129.570312 193.453125 131.289062 C 193.539062 133.476562 193.609375 135.414062 193.578125 137.070312 C 195.03125 138.035156 196.40625 139.308594 197.660156 140.867188 C 201.777344 146 203.636719 153.203125 202.28125 158.789062 C 201.886719 160.414062 200.839844 164.734375 197.027344 167.039062 C 191.582031 170.335938 184.621094 167.125 177.886719 164.019531 C 171.464844 161.058594 165.402344 158.261719 161.15625 161.152344 C 159.347656 162.382812 157.441406 164.875 157.265625 167.65625 C 157.125 169.917969 158.171875 172.34375 160.214844 174.488281 C 164.636719 179.128906 174.714844 176.707031 185.386719 174.148438 C 197.15625 171.324219 209.328125 168.402344 216.335938 174.136719 L 216.464844 174.242188 C 217.765625 175.296875 221.722656 178.507812 221.507812 183.003906 C 221.507812 183.136719 221.507812 187.019531 217.925781 190.59375 C 212.511719 195.996094 200.394531 192.148438 187.5625 188.070312 C 173.371094 183.558594 158.695312 178.894531 151.046875 185.5 C 150.8125 185.703125 145.3125 190.527344 145.785156 196.40625 C 146.171875 201.195312 150.234375 204.445312 151.046875 205.050781 C 157.375 209.761719 167.328125 207.03125 179.929688 203.570312 C 190.421875 200.6875 202.316406 197.421875 215.890625 197.144531 C 218.433594 197.09375 224.402344 196.972656 227.808594 200.902344 C 231.722656 205.414062 231.308594 214.167969 226.960938 218.914062 C 222.359375 223.933594 214.550781 223.078125 202.734375 221.785156 C 197.355469 221.195312 194.4375 220.496094 190.015625 219.433594 C 187.453125 218.820312 184.265625 218.054688 179.796875 217.132812 C 163.550781 213.785156 153.746094 211.765625 150.671875 215.203125 C 149.015625 217.054688 149.453125 219.363281 150.742188 226.21875 C 151.300781 229.175781 151.992188 232.859375 152.746094 237.695312 C 154.089844 246.289062 154.398438 251.34375 154.601562 254.691406 C 154.855469 258.835938 154.933594 260.085938 156.535156 262.101562 C 157.730469 263.601562 159.371094 264.722656 161.539062 265.578125 C 161.425781 264.753906 161.304688 263.792969 161.160156 262.644531 C 161.023438 261.519531 160.859375 260.214844 160.65625 258.675781 C 159.933594 253.234375 159.484375 250.3125 159.050781 247.484375 C 158.605469 244.566406 158.140625 241.550781 157.382812 235.78125 C 156.1875 226.691406 155.671875 221.433594 158.898438 219.121094 C 160.460938 218 162.644531 217.753906 164.207031 218.527344 C 167.0625 219.933594 167.519531 224.019531 167.375 234.824219 C 167.328125 238.441406 167.21875 241.65625 167.121094 244.488281 C 166.808594 253.722656 166.632812 258.808594 169.101562 260.132812 C 169.679688 260.441406 170.25 260.535156 170.707031 260.390625 C 172.933594 259.699219 173.128906 253.320312 173.289062 248.191406 C 173.414062 244.164062 173.46875 240.761719 173.511719 237.761719 C 173.671875 227.4375 173.738281 223.160156 176.585938 221.765625 C 178.0625 221.042969 179.660156 221.394531 180.578125 221.914062 C 183.632812 223.648438 183.175781 229.046875 182.421875 237.984375 L 182.40625 238.140625 C 181.046875 254.222656 180.429688 261.5625 183.023438 262.839844 C 183.203125 262.929688 183.847656 263.203125 184.5625 263 C 187.921875 262.050781 188.042969 252.03125 188.148438 243.195312 C 188.265625 233.605469 188.363281 225.328125 191.851562 224.402344 C 192.859375 224.136719 194.0625 224.511719 194.8125 225.003906 C 197.558594 226.8125 197.011719 231.890625 196.777344 234.058594 C 196.460938 237 196.160156 239.671875 195.890625 242.09375 C 194.398438 255.332031 193.714844 261.375 196.140625 263.109375 C 197.0625 263.773438 198.53125 263.921875 199.558594 263.453125 C 202.058594 262.320312 202.445312 253.628906 203.089844 239.230469 C 203.378906 232.785156 203.605469 227.726562 206.574219 226.566406 C 207.589844 226.171875 208.816406 226.28125 209.703125 226.84375 C 212.078125 228.351562 211.5625 232.824219 211.3125 234.976562 C 210.921875 238.375 210.535156 241.433594 210.191406 244.164062 C 208.898438 254.402344 208.121094 260.578125 210.035156 261.726562 C 210.636719 262.085938 211.390625 261.898438 211.535156 261.855469 C 213.667969 261.25 214.785156 255.925781 215.964844 240.757812 L 216.132812 238.578125 C 216.71875 230.757812 217.042969 226.449219 219.984375 225.15625 C 221.042969 224.6875 222.636719 224.5625 223.808594 225.339844 C 226.273438 226.976562 225.414062 231.355469 223.992188 238.609375 C 223.640625 240.394531 223.242188 242.417969 222.859375 244.589844 C 221.6875 251.238281 221.257812 255.453125 220.972656 258.246094 C 220.550781 262.359375 220.410156 263.746094 218.691406 265.671875 C 216.386719 268.257812 213.101562 270.195312 193.90625 269.710938 C 179.160156 269.335938 169.289062 269.085938 162.898438 267.179688 C 163.195312 268.648438 163.554688 269.425781 164.289062 270.324219 C 166.4375 272.945312 169.957031 274.527344 181.601562 274.859375 C 191.144531 275.132812 200.953125 274.652344 210.75 273.429688 C 211.042969 273.394531 211.316406 273.601562 211.351562 273.898438 C 211.390625 274.195312 211.179688 274.464844 210.882812 274.503906 C 202.816406 275.511719 194.742188 276.019531 186.808594 276.019531 " fill-opacity="1" fill-rule="nonzero"/></g><g fill="#212121" fill-opacity="1"><g transform="translate(120.444975, 113.575221)"><g><path d="M 0.484375 -1.515625 C 0.441406 -1.367188 0.351562 -1.269531 0.21875 -1.21875 C 0.09375 -1.175781 -0.046875 -1.175781 -0.203125 -1.21875 C -0.441406 -1.3125 -0.578125 -1.40625 -0.609375 -1.5 C -0.640625 -1.59375 -0.625 -1.753906 -0.5625 -1.984375 C -0.4375 -2.484375 -0.429688 -2.875 -0.546875 -3.15625 C -0.671875 -3.4375 -0.851562 -3.640625 -1.09375 -3.765625 C -1.332031 -3.898438 -1.664062 -4.035156 -2.09375 -4.171875 L -12.171875 -6.828125 C -12.597656 -6.921875 -12.953125 -6.96875 -13.234375 -6.96875 C -13.515625 -6.976562 -13.773438 -6.890625 -14.015625 -6.703125 C -14.253906 -6.515625 -14.4375 -6.171875 -14.5625 -5.671875 L -14.609375 -5.53125 C -14.648438 -5.351562 -14.707031 -5.238281 -14.78125 -5.1875 C -14.863281 -5.144531 -15.023438 -5.144531 -15.265625 -5.1875 C -15.429688 -5.226562 -15.554688 -5.296875 -15.640625 -5.390625 C -15.722656 -5.492188 -15.742188 -5.617188 -15.703125 -5.765625 C -15.359375 -6.867188 -15.066406 -7.867188 -14.828125 -8.765625 C -14.566406 -9.785156 -14.316406 -10.847656 -14.078125 -11.953125 C -14.035156 -12.109375 -13.953125 -12.210938 -13.828125 -12.265625 C -13.703125 -12.316406 -13.554688 -12.320312 -13.390625 -12.28125 C -13.148438 -12.195312 -13.015625 -12.097656 -12.984375 -11.984375 C -12.953125 -11.878906 -12.96875 -11.722656 -13.03125 -11.515625 C -13.15625 -11.015625 -13.160156 -10.625 -13.046875 -10.34375 C -12.929688 -10.0625 -12.75 -9.851562 -12.5 -9.71875 C -12.257812 -9.59375 -11.929688 -9.460938 -11.515625 -9.328125 L -1.046875 -6.578125 C -0.679688 -6.523438 -0.394531 -6.5 -0.1875 -6.5 C 0.0195312 -6.5 0.238281 -6.601562 0.46875 -6.8125 C 0.695312 -7.019531 0.875 -7.394531 1 -7.9375 L 1.609375 -10.21875 C 1.742188 -10.820312 1.757812 -11.296875 1.65625 -11.640625 C 1.5625 -11.992188 1.351562 -12.304688 1.03125 -12.578125 C 0.707031 -12.859375 0.160156 -13.238281 -0.609375 -13.71875 C -0.890625 -13.925781 -0.941406 -14.25 -0.765625 -14.6875 C -0.691406 -14.832031 -0.582031 -14.957031 -0.4375 -15.0625 C -0.289062 -15.175781 -0.144531 -15.203125 0 -15.140625 L 3.0625 -13.78125 C 3.269531 -13.664062 3.394531 -13.550781 3.4375 -13.4375 C 3.476562 -13.320312 3.460938 -13.144531 3.390625 -12.90625 L 1.203125 -4.578125 C 0.960938 -3.660156 0.722656 -2.640625 0.484375 -1.515625 Z M 0.484375 -1.515625 "/></g></g></g><g fill="#212121" fill-opacity="1"><g transform="translate(124.023691, 99.342501)"><g><path d="M 0.140625 -0.109375 C 0.0664062 0.0234375 -0.0351562 0.101562 -0.171875 0.125 C -0.304688 0.144531 -0.441406 0.117188 -0.578125 0.046875 C -0.804688 -0.0859375 -0.921875 -0.207031 -0.921875 -0.3125 C -0.929688 -0.414062 -0.90625 -0.519531 -0.84375 -0.625 C -0.789062 -0.738281 -0.753906 -0.8125 -0.734375 -0.84375 C -0.484375 -1.3125 -0.421875 -1.71875 -0.546875 -2.0625 C -0.671875 -2.40625 -0.847656 -2.71875 -1.078125 -3 C -1.316406 -3.289062 -1.484375 -3.492188 -1.578125 -3.609375 L -9 -12.78125 C -9.175781 -13 -9.335938 -13.148438 -9.484375 -13.234375 C -9.753906 -13.378906 -10.007812 -13.375 -10.25 -13.21875 C -10.488281 -13.070312 -10.75 -12.820312 -11.03125 -12.46875 C -11.21875 -12.238281 -11.351562 -12.101562 -11.4375 -12.0625 C -11.519531 -12.019531 -11.671875 -12.0625 -11.890625 -12.1875 C -12.066406 -12.28125 -12.15625 -12.394531 -12.15625 -12.53125 C -12.164062 -12.664062 -12.113281 -12.835938 -12 -13.046875 C -11.59375 -13.816406 -11.207031 -14.398438 -10.84375 -14.796875 C -10.488281 -15.191406 -10.046875 -15.46875 -9.515625 -15.625 C -8.992188 -15.78125 -8.296875 -15.8125 -7.421875 -15.71875 L 4.25 -14.5 C 4.96875 -14.425781 5.53125 -14.414062 5.9375 -14.46875 C 6.34375 -14.519531 6.671875 -14.757812 6.921875 -15.1875 L 7 -15.328125 C 7.082031 -15.484375 7.164062 -15.578125 7.25 -15.609375 C 7.332031 -15.648438 7.488281 -15.613281 7.71875 -15.5 C 7.851562 -15.425781 7.953125 -15.328125 8.015625 -15.203125 C 8.078125 -15.085938 8.070312 -14.960938 8 -14.828125 C 7.425781 -13.867188 6.945312 -13.03125 6.5625 -12.3125 C 6.070312 -11.382812 5.585938 -10.414062 5.109375 -9.40625 C 5.023438 -9.257812 4.914062 -9.175781 4.78125 -9.15625 C 4.644531 -9.144531 4.507812 -9.175781 4.375 -9.25 C 4.164062 -9.382812 4.050781 -9.492188 4.03125 -9.578125 C 4.007812 -9.671875 4.039062 -9.796875 4.125 -9.953125 C 4.40625 -10.472656 4.550781 -10.867188 4.5625 -11.140625 C 4.570312 -11.421875 4.445312 -11.632812 4.1875 -11.78125 C 3.976562 -11.882812 3.566406 -11.976562 2.953125 -12.0625 L 0.625 -12.296875 L -2.4375 -6.578125 C -1.6875 -5.679688 -1.25 -5.160156 -1.125 -5.015625 C -1 -4.878906 -0.929688 -4.8125 -0.921875 -4.8125 C -0.429688 -4.320312 -0.101562 -4.03125 0.0625 -3.9375 C 0.320312 -3.789062 0.554688 -3.8125 0.765625 -4 C 0.984375 -4.1875 1.265625 -4.601562 1.609375 -5.25 L 1.6875 -5.390625 C 1.769531 -5.546875 1.851562 -5.640625 1.9375 -5.671875 C 2.019531 -5.703125 2.175781 -5.664062 2.40625 -5.5625 C 2.539062 -5.488281 2.640625 -5.390625 2.703125 -5.265625 C 2.765625 -5.148438 2.757812 -5.023438 2.6875 -4.890625 C 2.113281 -3.921875 1.640625 -3.085938 1.265625 -2.390625 C 1.003906 -1.890625 0.628906 -1.128906 0.140625 -0.109375 Z M -3.21875 -7.5625 L -0.609375 -12.4375 L -7.8125 -13.265625 L -7.859375 -13.1875 Z M -3.21875 -7.5625 "/></g></g></g><g fill="#212121" fill-opacity="1"><g transform="translate(132.56921, 84.368509)"><g/></g></g><g fill="#212121" fill-opacity="1"><g transform="translate(135.909643, 79.337912)"><g><path d="M 6.09375 -5.15625 C 4.738281 -5.882812 2.585938 -7.023438 -0.359375 -8.578125 C -3.316406 -10.140625 -5.457031 -11.265625 -6.78125 -11.953125 C -7.507812 -12.304688 -8.078125 -12.492188 -8.484375 -12.515625 C -8.890625 -12.546875 -9.332031 -12.421875 -9.8125 -12.140625 C -9.875 -12.109375 -9.960938 -12.054688 -10.078125 -11.984375 C -10.191406 -11.910156 -10.296875 -11.882812 -10.390625 -11.90625 C -10.484375 -11.9375 -10.585938 -12.015625 -10.703125 -12.140625 C -10.835938 -12.296875 -10.890625 -12.441406 -10.859375 -12.578125 C -10.828125 -12.710938 -10.71875 -12.863281 -10.53125 -13.03125 C -9.550781 -13.914062 -8.671875 -14.4375 -7.890625 -14.59375 C -7.109375 -14.75 -6.226562 -14.578125 -5.25 -14.078125 L 4.453125 -9.046875 L 4.53125 -9.109375 L 0.125 -19.359375 C 0.0078125 -19.640625 -0.101562 -19.835938 -0.21875 -19.953125 C -0.382812 -20.140625 -0.566406 -20.191406 -0.765625 -20.109375 C -0.972656 -20.023438 -1.25 -19.828125 -1.59375 -19.515625 L -1.703125 -19.421875 C -1.835938 -19.296875 -1.953125 -19.234375 -2.046875 -19.234375 C -2.140625 -19.234375 -2.269531 -19.316406 -2.4375 -19.484375 C -2.550781 -19.609375 -2.613281 -19.738281 -2.625 -19.875 C -2.644531 -20.007812 -2.601562 -20.125 -2.5 -20.21875 C -1.625 -20.945312 -0.898438 -21.566406 -0.328125 -22.078125 C -0.0859375 -22.296875 0.367188 -22.738281 1.046875 -23.40625 L 1.453125 -23.8125 C 1.566406 -23.914062 1.6875 -23.953125 1.8125 -23.921875 C 1.945312 -23.890625 2.070312 -23.8125 2.1875 -23.6875 C 2.332031 -23.488281 2.398438 -23.34375 2.390625 -23.25 C 2.378906 -23.164062 2.304688 -23.0625 2.171875 -22.9375 C 1.617188 -22.4375 1.28125 -21.960938 1.15625 -21.515625 C 1.03125 -21.066406 1.097656 -20.492188 1.359375 -19.796875 C 1.941406 -18.378906 2.878906 -16.085938 4.171875 -12.921875 C 5.472656 -9.753906 6.414062 -7.441406 7 -5.984375 Z M 6.09375 -5.15625 "/></g></g></g><g fill="#212121" fill-opacity="1"><g transform="translate(148.684106, 68.231296)"><g><path d="M 1.40625 -0.75 C 1.269531 -0.664062 1.132812 -0.65625 1 -0.71875 C 0.875 -0.78125 0.773438 -0.875 0.703125 -1 C 0.578125 -1.226562 0.539062 -1.390625 0.59375 -1.484375 C 0.65625 -1.578125 0.785156 -1.679688 0.984375 -1.796875 C 1.410156 -2.054688 1.679688 -2.332031 1.796875 -2.625 C 1.910156 -2.914062 1.925781 -3.1875 1.84375 -3.4375 C 1.769531 -3.695312 1.628906 -4.03125 1.421875 -4.4375 L -3.953125 -13.390625 C -4.203125 -13.765625 -4.425781 -14.046875 -4.625 -14.234375 C -4.820312 -14.429688 -5.070312 -14.539062 -5.375 -14.5625 C -5.6875 -14.59375 -6.054688 -14.476562 -6.484375 -14.21875 L -6.625 -14.140625 C -6.757812 -14.054688 -6.875 -14.019531 -6.96875 -14.03125 C -7.070312 -14.050781 -7.191406 -14.160156 -7.328125 -14.359375 C -7.410156 -14.503906 -7.445312 -14.640625 -7.4375 -14.765625 C -7.425781 -14.898438 -7.351562 -15.007812 -7.21875 -15.09375 C -6.21875 -15.632812 -5.3125 -16.148438 -4.5 -16.640625 C -3.59375 -17.179688 -2.671875 -17.765625 -1.734375 -18.390625 C -1.597656 -18.472656 -1.460938 -18.488281 -1.328125 -18.4375 C -1.203125 -18.382812 -1.097656 -18.285156 -1.015625 -18.140625 C -0.898438 -17.910156 -0.867188 -17.742188 -0.921875 -17.640625 C -0.984375 -17.546875 -1.117188 -17.4375 -1.328125 -17.3125 C -1.765625 -17.050781 -2.039062 -16.78125 -2.15625 -16.5 C -2.269531 -16.21875 -2.285156 -15.945312 -2.203125 -15.6875 C -2.117188 -15.425781 -1.960938 -15.101562 -1.734375 -14.71875 L 3.640625 -5.765625 C 3.859375 -5.398438 4.066406 -5.113281 4.265625 -4.90625 C 4.460938 -4.707031 4.710938 -4.585938 5.015625 -4.546875 C 5.328125 -4.515625 5.703125 -4.628906 6.140625 -4.890625 L 6.28125 -4.96875 C 6.425781 -5.0625 6.546875 -5.101562 6.640625 -5.09375 C 6.734375 -5.09375 6.859375 -4.988281 7.015625 -4.78125 C 7.085938 -4.65625 7.117188 -4.519531 7.109375 -4.375 C 7.097656 -4.238281 7.023438 -4.128906 6.890625 -4.046875 C 5.898438 -3.515625 4.957031 -2.976562 4.0625 -2.4375 C 3.226562 -1.9375 2.34375 -1.375 1.40625 -0.75 Z M 1.40625 -0.75 "/></g></g></g><g fill="#212121" fill-opacity="1"><g transform="translate(156.767396, 63.051303)"><g><path d="M 1.515625 -0.46875 C 1.378906 -0.414062 1.253906 -0.429688 1.140625 -0.515625 C 1.023438 -0.597656 0.941406 -0.710938 0.890625 -0.859375 C 0.804688 -1.109375 0.796875 -1.273438 0.859375 -1.359375 C 0.929688 -1.441406 1.082031 -1.523438 1.3125 -1.609375 C 1.789062 -1.773438 2.109375 -1.988281 2.265625 -2.25 C 2.429688 -2.519531 2.492188 -2.789062 2.453125 -3.0625 C 2.421875 -3.332031 2.34375 -3.679688 2.21875 -4.109375 L -1.40625 -13.890625 C -1.570312 -14.296875 -1.726562 -14.613281 -1.875 -14.84375 C -2.03125 -15.082031 -2.253906 -15.238281 -2.546875 -15.3125 C -2.847656 -15.394531 -3.238281 -15.351562 -3.71875 -15.1875 L -3.859375 -15.125 C -4.023438 -15.0625 -4.148438 -15.050781 -4.234375 -15.09375 C -4.328125 -15.132812 -4.421875 -15.257812 -4.515625 -15.46875 C -4.566406 -15.625 -4.570312 -15.765625 -4.53125 -15.890625 C -4.5 -16.023438 -4.414062 -16.117188 -4.28125 -16.171875 C -3.1875 -16.515625 -2.207031 -16.847656 -1.34375 -17.171875 L 6.40625 -20.03125 C 6.832031 -20.195312 7.117188 -20.085938 7.265625 -19.703125 L 8.625 -16.25 C 8.675781 -16.101562 8.640625 -15.957031 8.515625 -15.8125 C 8.398438 -15.675781 8.269531 -15.582031 8.125 -15.53125 C 7.925781 -15.445312 7.738281 -15.414062 7.5625 -15.4375 C 7.394531 -15.457031 7.273438 -15.539062 7.203125 -15.6875 C 6.765625 -16.445312 6.390625 -17.003906 6.078125 -17.359375 C 5.773438 -17.722656 5.429688 -17.945312 5.046875 -18.03125 C 4.671875 -18.125 4.203125 -18.082031 3.640625 -17.90625 L 0.328125 -16.671875 L 2.640625 -10.421875 L 7.109375 -12.078125 C 7.222656 -12.097656 7.332031 -12.066406 7.4375 -11.984375 C 7.550781 -11.898438 7.632812 -11.785156 7.6875 -11.640625 C 7.726562 -11.515625 7.734375 -11.390625 7.703125 -11.265625 C 7.671875 -11.140625 7.601562 -11.054688 7.5 -11.015625 L 3.03125 -9.359375 L 4.765625 -4.703125 C 4.929688 -4.367188 5.078125 -4.109375 5.203125 -3.921875 C 5.328125 -3.734375 5.539062 -3.601562 5.84375 -3.53125 C 6.144531 -3.457031 6.554688 -3.523438 7.078125 -3.734375 L 9.359375 -4.578125 C 9.921875 -4.804688 10.316406 -5.0625 10.546875 -5.34375 C 10.785156 -5.625 10.921875 -5.972656 10.953125 -6.390625 C 10.984375 -6.816406 10.976562 -7.488281 10.9375 -8.40625 C 10.925781 -8.75 11.160156 -8.96875 11.640625 -9.0625 C 11.816406 -9.09375 11.984375 -9.082031 12.140625 -9.03125 C 12.304688 -8.976562 12.40625 -8.875 12.4375 -8.71875 L 13.109375 -5.421875 C 13.128906 -5.191406 13.097656 -5.023438 13.015625 -4.921875 C 12.941406 -4.816406 12.796875 -4.722656 12.578125 -4.640625 L 4.4375 -1.640625 C 3.550781 -1.304688 2.578125 -0.914062 1.515625 -0.46875 Z M 1.515625 -0.46875 "/></g></g></g><g fill="#212121" fill-opacity="1"><g transform="translate(171.701507, 57.967208)"><g/></g></g><g fill="#212121" fill-opacity="1"><g transform="translate(177.605824, 56.436123)"><g><path d="M 1.578125 0.03125 C 1.429688 0.03125 1.316406 -0.0195312 1.234375 -0.125 C 1.148438 -0.238281 1.109375 -0.375 1.109375 -0.53125 C 1.117188 -0.789062 1.164062 -0.945312 1.25 -1 C 1.34375 -1.0625 1.507812 -1.09375 1.75 -1.09375 C 2.257812 -1.113281 2.632812 -1.21875 2.875 -1.40625 C 3.113281 -1.601562 3.257812 -1.835938 3.3125 -2.109375 C 3.363281 -2.390625 3.394531 -2.75 3.40625 -3.1875 L 3.09375 -13.625 C 3.0625 -14.0625 3.007812 -14.410156 2.9375 -14.671875 C 2.875 -14.941406 2.710938 -15.164062 2.453125 -15.34375 C 2.203125 -15.519531 1.820312 -15.597656 1.3125 -15.578125 L 1.15625 -15.578125 C 0.976562 -15.578125 0.851562 -15.601562 0.78125 -15.65625 C 0.71875 -15.71875 0.671875 -15.867188 0.640625 -16.109375 C 0.640625 -16.273438 0.675781 -16.414062 0.75 -16.53125 C 0.820312 -16.644531 0.929688 -16.703125 1.078125 -16.703125 C 2.234375 -16.679688 3.273438 -16.6875 4.203125 -16.71875 L 12.453125 -16.96875 C 12.910156 -16.976562 13.148438 -16.773438 13.171875 -16.359375 L 13.359375 -12.671875 C 13.359375 -12.515625 13.28125 -12.382812 13.125 -12.28125 C 12.976562 -12.1875 12.828125 -12.140625 12.671875 -12.140625 C 12.453125 -12.128906 12.257812 -12.160156 12.09375 -12.234375 C 11.9375 -12.304688 11.847656 -12.421875 11.828125 -12.578125 C 11.660156 -13.441406 11.488281 -14.09375 11.3125 -14.53125 C 11.132812 -14.96875 10.878906 -15.289062 10.546875 -15.5 C 10.222656 -15.707031 9.757812 -15.8125 9.15625 -15.8125 L 5.625 -15.71875 L 5.828125 -9.046875 L 10.59375 -9.1875 C 10.707031 -9.164062 10.800781 -9.097656 10.875 -8.984375 C 10.957031 -8.867188 11 -8.734375 11 -8.578125 C 11.007812 -8.441406 10.976562 -8.320312 10.90625 -8.21875 C 10.832031 -8.113281 10.738281 -8.0625 10.625 -8.0625 L 5.859375 -7.921875 L 6.015625 -2.953125 C 6.066406 -2.578125 6.117188 -2.28125 6.171875 -2.0625 C 6.234375 -1.84375 6.394531 -1.648438 6.65625 -1.484375 C 6.925781 -1.316406 7.34375 -1.25 7.90625 -1.28125 L 10.328125 -1.359375 C 10.941406 -1.390625 11.398438 -1.5 11.703125 -1.6875 C 12.015625 -1.882812 12.253906 -2.175781 12.421875 -2.5625 C 12.597656 -2.957031 12.804688 -3.597656 13.046875 -4.484375 C 13.148438 -4.804688 13.445312 -4.941406 13.9375 -4.890625 C 14.113281 -4.859375 14.265625 -4.789062 14.390625 -4.6875 C 14.523438 -4.582031 14.585938 -4.453125 14.578125 -4.296875 L 14.15625 -0.96875 C 14.113281 -0.738281 14.035156 -0.585938 13.921875 -0.515625 C 13.816406 -0.441406 13.644531 -0.398438 13.40625 -0.390625 L 4.734375 -0.140625 C 3.785156 -0.109375 2.734375 -0.0507812 1.578125 0.03125 Z M 1.578125 0.03125 "/></g></g></g><g fill="#212121" fill-opacity="1"><g transform="translate(192.753363, 55.692295)"><g><path d="M 1.5625 0.4375 C 1.414062 0.40625 1.316406 0.320312 1.265625 0.1875 C 1.210938 0.0507812 1.203125 -0.0859375 1.234375 -0.234375 C 1.316406 -0.484375 1.40625 -0.625 1.5 -0.65625 C 1.601562 -0.6875 1.769531 -0.671875 2 -0.609375 C 2.5 -0.503906 2.882812 -0.515625 3.15625 -0.640625 C 3.425781 -0.773438 3.613281 -0.957031 3.71875 -1.1875 C 3.820312 -1.425781 3.9375 -1.773438 4.0625 -2.234375 L 6.390625 -12.421875 C 6.503906 -12.929688 6.539062 -13.328125 6.5 -13.609375 C 6.457031 -13.890625 6.328125 -14.117188 6.109375 -14.296875 C 5.890625 -14.484375 5.570312 -14.664062 5.15625 -14.84375 C 4.875 -14.957031 4.703125 -15.046875 4.640625 -15.109375 C 4.585938 -15.171875 4.585938 -15.328125 4.640625 -15.578125 C 4.691406 -15.773438 4.78125 -15.894531 4.90625 -15.9375 C 5.039062 -15.988281 5.222656 -15.984375 5.453125 -15.921875 C 6.515625 -15.691406 7.332031 -15.429688 7.90625 -15.140625 C 8.488281 -14.859375 8.972656 -14.476562 9.359375 -14 C 9.742188 -13.519531 10.128906 -12.828125 10.515625 -11.921875 L 15.46875 -1.125 L 15.546875 -1.109375 L 17.484375 -9.921875 C 17.566406 -10.378906 17.609375 -10.738281 17.609375 -11 C 17.617188 -11.257812 17.53125 -11.503906 17.34375 -11.734375 C 17.15625 -11.960938 16.8125 -12.132812 16.3125 -12.25 L 16.171875 -12.28125 C 15.992188 -12.320312 15.867188 -12.378906 15.796875 -12.453125 C 15.734375 -12.523438 15.71875 -12.6875 15.75 -12.9375 C 15.789062 -13.09375 15.863281 -13.210938 15.96875 -13.296875 C 16.082031 -13.390625 16.210938 -13.421875 16.359375 -13.390625 C 17.429688 -13.085938 18.242188 -12.875 18.796875 -12.75 C 19.117188 -12.675781 19.75 -12.554688 20.6875 -12.390625 L 21.21875 -12.296875 C 21.363281 -12.253906 21.460938 -12.171875 21.515625 -12.046875 C 21.578125 -11.921875 21.585938 -11.78125 21.546875 -11.625 C 21.484375 -11.363281 21.398438 -11.21875 21.296875 -11.1875 C 21.203125 -11.164062 21.035156 -11.179688 20.796875 -11.234375 C 20.304688 -11.347656 19.921875 -11.34375 19.640625 -11.21875 C 19.367188 -11.09375 19.179688 -10.910156 19.078125 -10.671875 C 18.972656 -10.429688 18.859375 -10.085938 18.734375 -9.640625 L 15.78125 3.28125 C 15.707031 3.5 15.46875 3.566406 15.0625 3.484375 C 14.738281 3.398438 14.515625 3.226562 14.390625 2.96875 L 7.640625 -12.140625 L 7.5625 -12.15625 L 5.3125 -1.953125 C 5.226562 -1.484375 5.179688 -1.117188 5.171875 -0.859375 C 5.171875 -0.609375 5.265625 -0.363281 5.453125 -0.125 C 5.648438 0.113281 5.992188 0.285156 6.484375 0.390625 L 6.65625 0.4375 C 6.8125 0.46875 6.921875 0.515625 6.984375 0.578125 C 7.046875 0.648438 7.0625 0.816406 7.03125 1.078125 C 7 1.222656 6.929688 1.34375 6.828125 1.4375 C 6.722656 1.539062 6.597656 1.570312 6.453125 1.53125 C 5.359375 1.226562 4.535156 1.015625 3.984375 0.890625 C 3.628906 0.816406 3.019531 0.695312 2.15625 0.53125 Z M 1.5625 0.4375 "/></g></g></g><g fill="#212121" fill-opacity="1"><g transform="translate(211.44979, 60.551063)"><g/></g></g><g fill="#212121" fill-opacity="1"><g transform="translate(217.153617, 62.470621)"><g><path d="M 1.296875 0.953125 C 1.160156 0.859375 1.085938 0.742188 1.078125 0.609375 C 1.078125 0.472656 1.125 0.335938 1.21875 0.203125 C 1.375 -0.00390625 1.503906 -0.101562 1.609375 -0.09375 C 1.710938 -0.09375 1.863281 -0.0234375 2.0625 0.109375 C 2.488281 0.390625 2.851562 0.519531 3.15625 0.5 C 3.46875 0.476562 3.722656 0.367188 3.921875 0.171875 C 4.117188 -0.015625 4.351562 -0.28125 4.625 -0.625 L 10.359375 -9.3125 C 10.585938 -9.71875 10.75 -10.039062 10.84375 -10.28125 C 10.9375 -10.53125 10.929688 -10.800781 10.828125 -11.09375 C 10.734375 -11.394531 10.472656 -11.6875 10.046875 -11.96875 L 9.921875 -12.0625 C 9.773438 -12.15625 9.691406 -12.242188 9.671875 -12.328125 C 9.648438 -12.421875 9.695312 -12.570312 9.8125 -12.78125 C 9.894531 -12.925781 10 -13.019531 10.125 -13.0625 C 10.257812 -13.113281 10.394531 -13.09375 10.53125 -13 C 11.445312 -12.332031 12.300781 -11.738281 13.09375 -11.21875 L 16.859375 -8.71875 C 17.984375 -7.96875 18.804688 -7.171875 19.328125 -6.328125 C 19.859375 -5.484375 20.117188 -4.679688 20.109375 -3.921875 C 20.109375 -3.160156 19.90625 -2.46875 19.5 -1.84375 C 18.96875 -1.050781 18.160156 -0.523438 17.078125 -0.265625 C 15.992188 -0.015625 14.804688 -0.101562 13.515625 -0.53125 L 13.515625 0.296875 C 13.460938 1.691406 13.453125 2.910156 13.484375 3.953125 C 13.515625 4.992188 13.617188 6.015625 13.796875 7.015625 C 13.984375 7.617188 14.289062 8.101562 14.71875 8.46875 C 14.75 8.488281 14.8125 8.535156 14.90625 8.609375 C 15.007812 8.679688 15.066406 8.773438 15.078125 8.890625 C 15.097656 9.015625 15.0625 9.148438 14.96875 9.296875 C 14.875 9.429688 14.765625 9.519531 14.640625 9.5625 C 14.515625 9.613281 14.382812 9.597656 14.25 9.515625 L 13.6875 9.125 C 13.070312 8.664062 12.613281 8.335938 12.3125 8.140625 C 11.800781 7.640625 11.4375 7.101562 11.21875 6.53125 C 11 5.957031 10.875 5.253906 10.84375 4.421875 C 10.78125 3.585938 10.789062 2.289062 10.875 0.53125 L 10.90625 -0.359375 C 10.894531 -0.847656 10.828125 -1.21875 10.703125 -1.46875 C 10.585938 -1.726562 10.28125 -2.023438 9.78125 -2.359375 L 9.140625 -2.78125 L 6.78125 0.796875 C 6.550781 1.171875 6.390625 1.488281 6.296875 1.75 C 6.203125 2.007812 6.203125 2.285156 6.296875 2.578125 C 6.398438 2.867188 6.664062 3.15625 7.09375 3.4375 L 7.21875 3.515625 C 7.351562 3.609375 7.4375 3.695312 7.46875 3.78125 C 7.5 3.875 7.457031 4.03125 7.34375 4.25 C 7.25 4.382812 7.132812 4.472656 7 4.515625 C 6.875 4.566406 6.742188 4.550781 6.609375 4.46875 C 5.710938 3.8125 4.816406 3.1875 3.921875 2.59375 C 3.148438 2.082031 2.273438 1.535156 1.296875 0.953125 Z M 11.640625 -2.359375 C 13.816406 -0.921875 15.582031 -1.222656 16.9375 -3.265625 C 17.488281 -4.097656 17.664062 -4.984375 17.46875 -5.921875 C 17.28125 -6.867188 16.535156 -7.773438 15.234375 -8.640625 C 14.804688 -8.921875 14.445312 -9.082031 14.15625 -9.125 C 13.875 -9.164062 13.609375 -9.085938 13.359375 -8.890625 C 13.109375 -8.703125 12.816406 -8.351562 12.484375 -7.84375 L 9.703125 -3.640625 Z M 11.640625 -2.359375 "/></g></g></g><g fill="#212121" fill-opacity="1"><g transform="translate(231.502894, 71.735225)"><g><path d="M 5.953125 7.5625 C 4.847656 6.3125 4.175781 4.945312 3.9375 3.46875 C 3.695312 1.988281 3.84375 0.554688 4.375 -0.828125 C 4.90625 -2.222656 5.734375 -3.414062 6.859375 -4.40625 C 8.242188 -5.625 9.722656 -6.367188 11.296875 -6.640625 C 12.878906 -6.921875 14.375 -6.816406 15.78125 -6.328125 C 17.1875 -5.835938 18.328125 -5.09375 19.203125 -4.09375 C 20.316406 -2.832031 21 -1.457031 21.25 0.03125 C 21.5 1.519531 21.363281 2.957031 20.84375 4.34375 C 20.320312 5.726562 19.492188 6.914062 18.359375 7.90625 C 16.984375 9.125 15.5 9.875 13.90625 10.15625 C 12.320312 10.4375 10.816406 10.320312 9.390625 9.8125 C 7.972656 9.3125 6.828125 8.5625 5.953125 7.5625 Z M 6.8125 6.796875 C 7.59375 7.679688 8.515625 8.1875 9.578125 8.3125 C 10.640625 8.4375 11.75 8.25 12.90625 7.75 C 14.070312 7.257812 15.203125 6.53125 16.296875 5.5625 C 17.304688 4.675781 18.101562 3.707031 18.6875 2.65625 C 19.269531 1.613281 19.546875 0.566406 19.515625 -0.484375 C 19.492188 -1.535156 19.101562 -2.492188 18.34375 -3.359375 C 17.1875 -4.671875 15.753906 -5.171875 14.046875 -4.859375 C 12.347656 -4.546875 10.648438 -3.640625 8.953125 -2.140625 C 7.929688 -1.242188 7.125 -0.273438 6.53125 0.765625 C 5.945312 1.816406 5.65625 2.863281 5.65625 3.90625 C 5.65625 4.957031 6.039062 5.921875 6.8125 6.796875 Z M 6.8125 6.796875 "/></g></g></g><g fill="#212121" fill-opacity="1"><g transform="translate(243.783636, 86.056702)"><g><path d="M 2.75 6.4375 C 1.894531 4.800781 1.523438 3.398438 1.640625 2.234375 C 1.765625 1.078125 2.378906 0.210938 3.484375 -0.359375 C 4.046875 -0.648438 4.609375 -0.703125 5.171875 -0.515625 C 5.734375 -0.328125 6.171875 0.0664062 6.484375 0.671875 C 6.648438 1.046875 6.703125 1.367188 6.640625 1.640625 C 6.578125 1.910156 6.476562 2.078125 6.34375 2.140625 C 6.320312 2.148438 6.222656 2.101562 6.046875 2 C 5.867188 1.90625 5.65625 1.84375 5.40625 1.8125 C 5.164062 1.78125 4.878906 1.851562 4.546875 2.03125 C 3.816406 2.40625 3.367188 2.914062 3.203125 3.5625 C 3.035156 4.207031 3.195312 5 3.6875 5.9375 C 4.019531 6.570312 4.429688 7.066406 4.921875 7.421875 C 5.421875 7.773438 5.941406 7.96875 6.484375 8 C 7.035156 8.039062 7.535156 7.945312 7.984375 7.71875 C 8.546875 7.425781 8.945312 7.019531 9.1875 6.5 C 9.425781 5.976562 9.554688 5.410156 9.578125 4.796875 C 9.609375 4.191406 9.59375 3.390625 9.53125 2.390625 C 9.46875 1.234375 9.457031 0.28125 9.5 -0.46875 C 9.539062 -1.21875 9.738281 -1.941406 10.09375 -2.640625 C 10.457031 -3.347656 11.054688 -3.921875 11.890625 -4.359375 C 13.242188 -5.054688 14.492188 -5.113281 15.640625 -4.53125 C 16.796875 -3.957031 17.769531 -2.914062 18.5625 -1.40625 C 19.164062 -0.226562 19.445312 0.925781 19.40625 2.0625 C 19.363281 3.195312 18.859375 4.015625 17.890625 4.515625 C 17.335938 4.796875 16.773438 4.84375 16.203125 4.65625 C 15.640625 4.476562 15.203125 4.082031 14.890625 3.46875 C 14.722656 3.101562 14.671875 2.785156 14.734375 2.515625 C 14.796875 2.242188 14.898438 2.070312 15.046875 2 C 15.054688 1.988281 15.164062 2.066406 15.375 2.234375 C 15.582031 2.398438 15.820312 2.515625 16.09375 2.578125 C 16.363281 2.640625 16.660156 2.585938 16.984375 2.421875 C 17.554688 2.117188 17.890625 1.660156 17.984375 1.046875 C 18.078125 0.441406 17.945312 -0.203125 17.59375 -0.890625 C 17.101562 -1.828125 16.507812 -2.425781 15.8125 -2.6875 C 15.113281 -2.945312 14.441406 -2.910156 13.796875 -2.578125 C 13.253906 -2.296875 12.878906 -1.910156 12.671875 -1.421875 C 12.460938 -0.941406 12.34375 -0.285156 12.3125 0.546875 C 12.3125 1.222656 12.332031 1.945312 12.375 2.71875 C 12.4375 3.9375 12.429688 4.9375 12.359375 5.71875 C 12.296875 6.507812 12.0625 7.253906 11.65625 7.953125 C 11.257812 8.660156 10.609375 9.25 9.703125 9.71875 C 8.929688 10.125 8.101562 10.242188 7.21875 10.078125 C 6.332031 9.921875 5.492188 9.519531 4.703125 8.875 C 3.910156 8.238281 3.257812 7.425781 2.75 6.4375 Z M 2.75 6.4375 "/></g></g></g><g fill="#212121" fill-opacity="1"><g transform="translate(250.372892, 98.515889)"><g><path d="M 0.328125 1.546875 C 0.285156 1.398438 0.3125 1.273438 0.40625 1.171875 C 0.5 1.078125 0.625 1.007812 0.78125 0.96875 C 1.03125 0.90625 1.191406 0.910156 1.265625 0.984375 C 1.347656 1.066406 1.414062 1.222656 1.46875 1.453125 C 1.601562 1.941406 1.789062 2.28125 2.03125 2.46875 C 2.269531 2.65625 2.53125 2.742188 2.8125 2.734375 C 3.09375 2.722656 3.445312 2.671875 3.875 2.578125 L 13.96875 -0.125 C 14.375 -0.25 14.695312 -0.375 14.9375 -0.5 C 15.1875 -0.632812 15.367188 -0.84375 15.484375 -1.125 C 15.597656 -1.414062 15.585938 -1.804688 15.453125 -2.296875 L 15.421875 -2.453125 C 15.367188 -2.617188 15.363281 -2.742188 15.40625 -2.828125 C 15.457031 -2.910156 15.597656 -2.988281 15.828125 -3.0625 C 15.984375 -3.101562 16.125 -3.097656 16.25 -3.046875 C 16.375 -3.003906 16.457031 -2.910156 16.5 -2.765625 C 16.75 -1.640625 16.992188 -0.628906 17.234375 0.265625 L 19.359375 8.234375 C 19.484375 8.671875 19.34375 8.941406 18.9375 9.046875 L 15.390625 10.078125 C 15.242188 10.117188 15.101562 10.078125 14.96875 9.953125 C 14.832031 9.828125 14.742188 9.691406 14.703125 9.546875 C 14.648438 9.328125 14.640625 9.128906 14.671875 8.953125 C 14.710938 8.785156 14.804688 8.671875 14.953125 8.609375 C 15.753906 8.253906 16.347656 7.9375 16.734375 7.65625 C 17.117188 7.382812 17.375 7.066406 17.5 6.703125 C 17.625 6.335938 17.617188 5.863281 17.484375 5.28125 L 16.578125 1.875 L 10.140625 3.59375 L 11.375 8.1875 C 11.375 8.3125 11.328125 8.425781 11.234375 8.53125 C 11.148438 8.632812 11.03125 8.707031 10.875 8.75 C 10.738281 8.78125 10.609375 8.769531 10.484375 8.71875 C 10.367188 8.675781 10.300781 8.597656 10.28125 8.484375 L 9.046875 3.890625 L 4.25 5.171875 C 3.894531 5.316406 3.617188 5.4375 3.421875 5.53125 C 3.222656 5.632812 3.070312 5.835938 2.96875 6.140625 C 2.875 6.441406 2.90625 6.863281 3.0625 7.40625 L 3.6875 9.734375 C 3.875 10.316406 4.09375 10.734375 4.34375 10.984375 C 4.59375 11.242188 4.925781 11.410156 5.34375 11.484375 C 5.769531 11.566406 6.441406 11.625 7.359375 11.65625 C 7.703125 11.6875 7.898438 11.941406 7.953125 12.421875 C 7.960938 12.609375 7.929688 12.773438 7.859375 12.921875 C 7.785156 13.078125 7.675781 13.164062 7.53125 13.1875 L 4.1875 13.546875 C 3.957031 13.554688 3.796875 13.515625 3.703125 13.421875 C 3.609375 13.335938 3.53125 13.179688 3.46875 12.953125 L 1.21875 4.578125 C 0.976562 3.660156 0.679688 2.648438 0.328125 1.546875 Z M 0.328125 1.546875 "/></g></g></g><g fill="#212121" fill-opacity="1"><g transform="translate(149.445536, 321.814945)"><g><path d="M 3.09375 -7.109375 L 3.6875 -7.109375 L 6.640625 0 L 5.90625 0 L 4.984375 -2.21875 L 1.78125 -2.21875 L 0.875 0 L 0.125 0 Z M 4.8125 -2.78125 L 3.390625 -6.296875 L 1.9375 -2.78125 Z M 4.8125 -2.78125 "/></g></g></g><g fill="#212121" fill-opacity="1"><g transform="translate(156.587556, 321.814945)"><g/></g></g><g fill="#212121" fill-opacity="1"><g transform="translate(159.512476, 321.814945)"><g><path d="M 0.859375 -7.109375 L 3.40625 -0.875 L 5.9375 -7.109375 L 6.671875 -7.109375 L 3.71875 0 L 3.078125 0 L 0.125 -7.109375 Z M 0.859375 -7.109375 "/></g></g></g><g fill="#212121" fill-opacity="1"><g transform="translate(166.68455, 321.814945)"><g><path d="M 5.671875 -0.625 L 5.671875 0 L 0.890625 0 L 0.890625 -7.109375 L 5.578125 -7.109375 L 5.578125 -6.484375 L 1.59375 -6.484375 L 1.59375 -3.921875 L 5.0625 -3.921875 L 5.0625 -3.328125 L 1.59375 -3.328125 L 1.59375 -0.625 Z M 5.671875 -0.625 "/></g></g></g><g fill="#212121" fill-opacity="1"><g transform="translate(173.155439, 321.814945)"><g><path d="M 1.59375 -5.8125 L 1.59375 0 L 0.890625 0 L 0.890625 -7.109375 L 1.46875 -7.109375 L 6.140625 -1.1875 L 6.140625 -7.09375 L 6.84375 -7.09375 L 6.84375 0 L 6.1875 0 Z M 1.59375 -5.8125 "/></g></g></g><g fill="#212121" fill-opacity="1"><g transform="translate(181.259072, 321.814945)"><g><path d="M 5.9375 -6.484375 L 3.40625 -6.484375 L 3.40625 0 L 2.703125 0 L 2.703125 -6.484375 L 0.171875 -6.484375 L 0.171875 -7.109375 L 5.9375 -7.109375 Z M 5.9375 -6.484375 "/></g></g></g><g fill="#212121" fill-opacity="1"><g transform="translate(187.739982, 321.814945)"><g><path d="M 3.78125 0.046875 C 3.21875 0.046875 2.742188 -0.0507812 2.359375 -0.25 C 1.972656 -0.445312 1.664062 -0.710938 1.4375 -1.046875 C 1.21875 -1.390625 1.054688 -1.773438 0.953125 -2.203125 C 0.847656 -2.628906 0.796875 -3.070312 0.796875 -3.53125 L 0.796875 -7.109375 L 1.484375 -7.109375 L 1.484375 -3.53125 C 1.484375 -3.15625 1.519531 -2.789062 1.59375 -2.4375 C 1.675781 -2.082031 1.800781 -1.765625 1.96875 -1.484375 C 2.144531 -1.210938 2.378906 -0.992188 2.671875 -0.828125 C 2.960938 -0.660156 3.332031 -0.578125 3.78125 -0.578125 C 4.226562 -0.578125 4.597656 -0.660156 4.890625 -0.828125 C 5.191406 -1.003906 5.425781 -1.234375 5.59375 -1.515625 C 5.769531 -1.796875 5.894531 -2.109375 5.96875 -2.453125 C 6.039062 -2.804688 6.078125 -3.164062 6.078125 -3.53125 L 6.078125 -7.109375 L 6.78125 -7.109375 L 6.78125 -3.53125 C 6.78125 -3.050781 6.722656 -2.59375 6.609375 -2.15625 C 6.503906 -1.726562 6.332031 -1.347656 6.09375 -1.015625 C 5.863281 -0.691406 5.554688 -0.429688 5.171875 -0.234375 C 4.796875 -0.046875 4.332031 0.046875 3.78125 0.046875 Z M 3.78125 0.046875 "/></g></g></g><g fill="#212121" fill-opacity="1"><g transform="translate(195.673329, 321.814945)"><g><path d="M 0.890625 0 L 0.890625 -7.109375 L 3.890625 -7.109375 C 4.203125 -7.109375 4.484375 -7.046875 4.734375 -6.921875 C 4.992188 -6.796875 5.21875 -6.625 5.40625 -6.40625 C 5.59375 -6.1875 5.738281 -5.941406 5.84375 -5.671875 C 5.945312 -5.410156 6 -5.144531 6 -4.875 C 6 -4.53125 5.929688 -4.207031 5.796875 -3.90625 C 5.671875 -3.613281 5.488281 -3.363281 5.25 -3.15625 C 5.007812 -2.945312 4.734375 -2.8125 4.421875 -2.75 L 6.15625 0 L 5.375 0 L 3.703125 -2.625 L 1.59375 -2.625 L 1.59375 0 Z M 1.59375 -3.25 L 3.921875 -3.25 C 4.203125 -3.25 4.441406 -3.320312 4.640625 -3.46875 C 4.847656 -3.625 5.007812 -3.828125 5.125 -4.078125 C 5.238281 -4.328125 5.296875 -4.59375 5.296875 -4.875 C 5.296875 -5.164062 5.226562 -5.429688 5.09375 -5.671875 C 4.96875 -5.921875 4.796875 -6.117188 4.578125 -6.265625 C 4.359375 -6.410156 4.117188 -6.484375 3.859375 -6.484375 L 1.59375 -6.484375 Z M 1.59375 -3.25 "/></g></g></g><g fill="#212121" fill-opacity="1"><g transform="translate(202.584965, 321.814945)"><g><path d="M 5.671875 -0.625 L 5.671875 0 L 0.890625 0 L 0.890625 -7.109375 L 5.578125 -7.109375 L 5.578125 -6.484375 L 1.59375 -6.484375 L 1.59375 -3.921875 L 5.0625 -3.921875 L 5.0625 -3.328125 L 1.59375 -3.328125 L 1.59375 -0.625 Z M 5.671875 -0.625 "/></g></g></g><g fill="#212121" fill-opacity="1"><g transform="translate(209.055853, 321.814945)"><g/></g></g><g fill="#212121" fill-opacity="1"><g transform="translate(211.980772, 321.814945)"><g><path d="M 6.234375 -1.828125 C 6.234375 -1.472656 6.144531 -1.15625 5.96875 -0.875 C 5.789062 -0.601562 5.546875 -0.390625 5.234375 -0.234375 C 4.929688 -0.078125 4.601562 0 4.25 0 L 0.890625 0 L 0.890625 -7.109375 L 4.3125 -7.109375 C 4.644531 -7.109375 4.929688 -7.019531 5.171875 -6.84375 C 5.421875 -6.664062 5.609375 -6.4375 5.734375 -6.15625 C 5.867188 -5.882812 5.9375 -5.597656 5.9375 -5.296875 C 5.9375 -4.941406 5.847656 -4.613281 5.671875 -4.3125 C 5.492188 -4.007812 5.242188 -3.785156 4.921875 -3.640625 C 5.328125 -3.523438 5.644531 -3.300781 5.875 -2.96875 C 6.113281 -2.644531 6.234375 -2.265625 6.234375 -1.828125 Z M 5.53125 -1.953125 C 5.53125 -2.191406 5.476562 -2.410156 5.375 -2.609375 C 5.269531 -2.816406 5.125 -2.984375 4.9375 -3.109375 C 4.757812 -3.242188 4.550781 -3.3125 4.3125 -3.3125 L 1.59375 -3.3125 L 1.59375 -0.609375 L 4.25 -0.609375 C 4.488281 -0.609375 4.703125 -0.671875 4.890625 -0.796875 C 5.085938 -0.921875 5.242188 -1.085938 5.359375 -1.296875 C 5.472656 -1.503906 5.53125 -1.722656 5.53125 -1.953125 Z M 1.59375 -6.5 L 1.59375 -3.875 L 4.03125 -3.875 C 4.269531 -3.875 4.476562 -3.9375 4.65625 -4.0625 C 4.832031 -4.1875 4.972656 -4.347656 5.078125 -4.546875 C 5.191406 -4.742188 5.25 -4.957031 5.25 -5.1875 C 5.25 -5.425781 5.195312 -5.644531 5.09375 -5.84375 C 5 -6.039062 4.863281 -6.195312 4.6875 -6.3125 C 4.507812 -6.4375 4.3125 -6.5 4.09375 -6.5 Z M 1.59375 -6.5 "/></g></g></g><g fill="#212121" fill-opacity="1"><g transform="translate(219.022621, 321.814945)"><g><path d="M 0.9375 -7.109375 L 3.25 -3.28125 L 5.59375 -7.109375 L 6.359375 -7.109375 L 3.609375 -2.640625 L 3.609375 0 L 2.90625 0 L 2.90625 -2.671875 L 0.15625 -7.109375 Z M 0.9375 -7.109375 "/></g></g></g><g fill="#212121" fill-opacity="1"><g transform="translate(146.579391, 333.083883)"><g><path d="M 0.890625 0 L 0.890625 -7.109375 L 3.84375 -7.109375 C 4.144531 -7.109375 4.421875 -7.046875 4.671875 -6.921875 C 4.929688 -6.796875 5.15625 -6.625 5.34375 -6.40625 C 5.53125 -6.1875 5.675781 -5.941406 5.78125 -5.671875 C 5.894531 -5.410156 5.953125 -5.144531 5.953125 -4.875 C 5.953125 -4.488281 5.863281 -4.125 5.6875 -3.78125 C 5.519531 -3.4375 5.28125 -3.15625 4.96875 -2.9375 C 4.664062 -2.726562 4.304688 -2.625 3.890625 -2.625 L 1.59375 -2.625 L 1.59375 0 Z M 1.59375 -3.25 L 3.859375 -3.25 C 4.140625 -3.25 4.382812 -3.320312 4.59375 -3.46875 C 4.800781 -3.625 4.960938 -3.828125 5.078125 -4.078125 C 5.191406 -4.328125 5.25 -4.59375 5.25 -4.875 C 5.25 -5.164062 5.179688 -5.4375 5.046875 -5.6875 C 4.910156 -5.9375 4.734375 -6.128906 4.515625 -6.265625 C 4.304688 -6.410156 4.070312 -6.484375 3.8125 -6.484375 L 1.59375 -6.484375 Z M 1.59375 -3.25 "/></g></g></g><g fill="#212121" fill-opacity="1"><g transform="translate(153.180503, 333.083883)"><g><path d="M 3.75 0.046875 C 3.25 0.046875 2.796875 -0.0507812 2.390625 -0.25 C 1.984375 -0.445312 1.632812 -0.71875 1.34375 -1.0625 C 1.050781 -1.40625 0.820312 -1.789062 0.65625 -2.21875 C 0.5 -2.65625 0.421875 -3.101562 0.421875 -3.5625 C 0.421875 -4.03125 0.503906 -4.476562 0.671875 -4.90625 C 0.835938 -5.34375 1.070312 -5.726562 1.375 -6.0625 C 1.675781 -6.40625 2.03125 -6.671875 2.4375 -6.859375 C 2.851562 -7.054688 3.296875 -7.15625 3.765625 -7.15625 C 4.265625 -7.15625 4.71875 -7.050781 5.125 -6.84375 C 5.53125 -6.644531 5.878906 -6.367188 6.171875 -6.015625 C 6.460938 -5.671875 6.6875 -5.285156 6.84375 -4.859375 C 7.007812 -4.429688 7.09375 -3.992188 7.09375 -3.546875 C 7.09375 -3.066406 7.007812 -2.613281 6.84375 -2.1875 C 6.675781 -1.757812 6.441406 -1.375 6.140625 -1.03125 C 5.835938 -0.695312 5.484375 -0.429688 5.078125 -0.234375 C 4.671875 -0.046875 4.226562 0.046875 3.75 0.046875 Z M 1.125 -3.5625 C 1.125 -3.164062 1.1875 -2.789062 1.3125 -2.4375 C 1.4375 -2.082031 1.613281 -1.765625 1.84375 -1.484375 C 2.082031 -1.210938 2.363281 -0.992188 2.6875 -0.828125 C 3.007812 -0.660156 3.363281 -0.578125 3.75 -0.578125 C 4.15625 -0.578125 4.519531 -0.660156 4.84375 -0.828125 C 5.175781 -1.003906 5.457031 -1.234375 5.6875 -1.515625 C 5.914062 -1.796875 6.085938 -2.113281 6.203125 -2.46875 C 6.328125 -2.820312 6.390625 -3.1875 6.390625 -3.5625 C 6.390625 -3.945312 6.328125 -4.316406 6.203125 -4.671875 C 6.078125 -5.023438 5.894531 -5.34375 5.65625 -5.625 C 5.414062 -5.90625 5.132812 -6.125 4.8125 -6.28125 C 4.5 -6.4375 4.144531 -6.515625 3.75 -6.515625 C 3.351562 -6.515625 2.992188 -6.429688 2.671875 -6.265625 C 2.347656 -6.097656 2.070312 -5.875 1.84375 -5.59375 C 1.613281 -5.3125 1.4375 -4.992188 1.3125 -4.640625 C 1.1875 -4.285156 1.125 -3.925781 1.125 -3.5625 Z M 1.125 -3.5625 "/></g></g></g><g fill="#212121" fill-opacity="1"><g transform="translate(161.073785, 333.083883)"><g><path d="M 3.75 0.046875 C 3.25 0.046875 2.796875 -0.0507812 2.390625 -0.25 C 1.984375 -0.445312 1.632812 -0.71875 1.34375 -1.0625 C 1.050781 -1.40625 0.820312 -1.789062 0.65625 -2.21875 C 0.5 -2.65625 0.421875 -3.101562 0.421875 -3.5625 C 0.421875 -4.03125 0.503906 -4.476562 0.671875 -4.90625 C 0.835938 -5.34375 1.070312 -5.726562 1.375 -6.0625 C 1.675781 -6.40625 2.03125 -6.671875 2.4375 -6.859375 C 2.851562 -7.054688 3.296875 -7.15625 3.765625 -7.15625 C 4.265625 -7.15625 4.71875 -7.050781 5.125 -6.84375 C 5.53125 -6.644531 5.878906 -6.367188 6.171875 -6.015625 C 6.460938 -5.671875 6.6875 -5.285156 6.84375 -4.859375 C 7.007812 -4.429688 7.09375 -3.992188 7.09375 -3.546875 C 7.09375 -3.066406 7.007812 -2.613281 6.84375 -2.1875 C 6.675781 -1.757812 6.441406 -1.375 6.140625 -1.03125 C 5.835938 -0.695312 5.484375 -0.429688 5.078125 -0.234375 C 4.671875 -0.046875 4.226562 0.046875 3.75 0.046875 Z M 1.125 -3.5625 C 1.125 -3.164062 1.1875 -2.789062 1.3125 -2.4375 C 1.4375 -2.082031 1.613281 -1.765625 1.84375 -1.484375 C 2.082031 -1.210938 2.363281 -0.992188 2.6875 -0.828125 C 3.007812 -0.660156 3.363281 -0.578125 3.75 -0.578125 C 4.15625 -0.578125 4.519531 -0.660156 4.84375 -0.828125 C 5.175781 -1.003906 5.457031 -1.234375 5.6875 -1.515625 C 5.914062 -1.796875 6.085938 -2.113281 6.203125 -2.46875 C 6.328125 -2.820312 6.390625 -3.1875 6.390625 -3.5625 C 6.390625 -3.945312 6.328125 -4.316406 6.203125 -4.671875 C 6.078125 -5.023438 5.894531 -5.34375 5.65625 -5.625 C 5.414062 -5.90625 5.132812 -6.125 4.8125 -6.28125 C 4.5 -6.4375 4.144531 -6.515625 3.75 -6.515625 C 3.351562 -6.515625 2.992188 -6.429688 2.671875 -6.265625 C 2.347656 -6.097656 2.070312 -5.875 1.84375 -5.59375 C 1.613281 -5.3125 1.4375 -4.992188 1.3125 -4.640625 C 1.1875 -4.285156 1.125 -3.925781 1.125 -3.5625 Z M 1.125 -3.5625 "/></g></g></g><g fill="#212121" fill-opacity="1"><g transform="translate(168.967067, 333.083883)"><g><path d="M 0.34375 -0.890625 C 0.476562 -0.785156 0.660156 -0.695312 0.890625 -0.625 C 1.117188 -0.550781 1.382812 -0.515625 1.6875 -0.515625 C 2.039062 -0.515625 2.320312 -0.570312 2.53125 -0.6875 C 2.75 -0.8125 2.910156 -0.988281 3.015625 -1.21875 C 3.128906 -1.457031 3.207031 -1.753906 3.25 -2.109375 C 3.289062 -2.460938 3.3125 -2.878906 3.3125 -3.359375 L 3.3125 -7.109375 L 4.015625 -7.109375 L 4.015625 -3.5 C 4.015625 -2.957031 3.988281 -2.46875 3.9375 -2.03125 C 3.882812 -1.59375 3.78125 -1.210938 3.625 -0.890625 C 3.46875 -0.566406 3.234375 -0.316406 2.921875 -0.140625 C 2.617188 0.0234375 2.21875 0.109375 1.71875 0.109375 C 1.382812 0.109375 1.085938 0.0703125 0.828125 0 C 0.578125 -0.0703125 0.347656 -0.179688 0.140625 -0.328125 Z M 0.34375 -0.890625 "/></g></g></g><g fill="#212121" fill-opacity="1"><g transform="translate(174.155798, 333.083883)"><g><path d="M 3.09375 -7.109375 L 3.6875 -7.109375 L 6.640625 0 L 5.90625 0 L 4.984375 -2.21875 L 1.78125 -2.21875 L 0.875 0 L 0.125 0 Z M 4.8125 -2.78125 L 3.390625 -6.296875 L 1.9375 -2.78125 Z M 4.8125 -2.78125 "/></g></g></g><g fill="#212121" fill-opacity="1"><g transform="translate(181.297818, 333.083883)"><g/></g></g><g fill="#212121" fill-opacity="1"><g transform="translate(184.222737, 333.083883)"><g><path d="M 5.046875 -5.78125 C 4.941406 -5.894531 4.820312 -5.992188 4.6875 -6.078125 C 4.5625 -6.171875 4.414062 -6.25 4.25 -6.3125 C 4.082031 -6.382812 3.898438 -6.441406 3.703125 -6.484375 C 3.515625 -6.523438 3.316406 -6.546875 3.109375 -6.546875 C 2.484375 -6.546875 2.023438 -6.425781 1.734375 -6.1875 C 1.441406 -5.945312 1.296875 -5.625 1.296875 -5.21875 C 1.296875 -4.9375 1.363281 -4.710938 1.5 -4.546875 C 1.644531 -4.390625 1.863281 -4.257812 2.15625 -4.15625 C 2.445312 -4.0625 2.820312 -3.960938 3.28125 -3.859375 C 3.78125 -3.753906 4.210938 -3.625 4.578125 -3.46875 C 4.953125 -3.320312 5.238281 -3.125 5.4375 -2.875 C 5.632812 -2.625 5.734375 -2.285156 5.734375 -1.859375 C 5.734375 -1.535156 5.671875 -1.253906 5.546875 -1.015625 C 5.421875 -0.773438 5.242188 -0.570312 5.015625 -0.40625 C 4.785156 -0.25 4.515625 -0.128906 4.203125 -0.046875 C 3.890625 0.0234375 3.546875 0.0625 3.171875 0.0625 C 2.804688 0.0625 2.453125 0.0234375 2.109375 -0.046875 C 1.773438 -0.128906 1.457031 -0.242188 1.15625 -0.390625 C 0.863281 -0.546875 0.585938 -0.738281 0.328125 -0.96875 L 0.671875 -1.546875 C 0.796875 -1.410156 0.945312 -1.28125 1.125 -1.15625 C 1.300781 -1.039062 1.5 -0.9375 1.71875 -0.84375 C 1.9375 -0.757812 2.171875 -0.691406 2.421875 -0.640625 C 2.671875 -0.585938 2.925781 -0.5625 3.1875 -0.5625 C 3.757812 -0.5625 4.203125 -0.664062 4.515625 -0.875 C 4.835938 -1.082031 5 -1.390625 5 -1.796875 C 5 -2.085938 4.914062 -2.320312 4.75 -2.5 C 4.59375 -2.675781 4.351562 -2.820312 4.03125 -2.9375 C 3.71875 -3.050781 3.328125 -3.160156 2.859375 -3.265625 C 2.359375 -3.378906 1.9375 -3.503906 1.59375 -3.640625 C 1.257812 -3.785156 1.003906 -3.972656 0.828125 -4.203125 C 0.660156 -4.429688 0.578125 -4.738281 0.578125 -5.125 C 0.578125 -5.5625 0.6875 -5.929688 0.90625 -6.234375 C 1.125 -6.535156 1.421875 -6.765625 1.796875 -6.921875 C 2.179688 -7.078125 2.617188 -7.15625 3.109375 -7.15625 C 3.421875 -7.15625 3.710938 -7.125 3.984375 -7.0625 C 4.253906 -7 4.503906 -6.90625 4.734375 -6.78125 C 4.972656 -6.664062 5.191406 -6.519531 5.390625 -6.34375 Z M 5.046875 -5.78125 "/></g></g></g><g fill="#212121" fill-opacity="1"><g transform="translate(190.673596, 333.083883)"><g><path d="M 6.5 -7.109375 L 6.5 0 L 5.8125 0 L 5.8125 -3.328125 L 1.59375 -3.328125 L 1.59375 0 L 0.890625 0 L 0.890625 -7.109375 L 1.59375 -7.109375 L 1.59375 -3.953125 L 5.8125 -3.953125 L 5.8125 -7.109375 Z M 6.5 -7.109375 "/></g></g></g><g fill="#212121" fill-opacity="1"><g transform="translate(198.436662, 333.083883)"><g><path d="M 3.09375 -7.109375 L 3.6875 -7.109375 L 6.640625 0 L 5.90625 0 L 4.984375 -2.21875 L 1.78125 -2.21875 L 0.875 0 L 0.125 0 Z M 4.8125 -2.78125 L 3.390625 -6.296875 L 1.9375 -2.78125 Z M 4.8125 -2.78125 "/></g></g></g><g fill="#212121" fill-opacity="1"><g transform="translate(205.578683, 333.083883)"><g><path d="M 0.890625 0 L 0.890625 -7.109375 L 3.890625 -7.109375 C 4.203125 -7.109375 4.484375 -7.046875 4.734375 -6.921875 C 4.992188 -6.796875 5.21875 -6.625 5.40625 -6.40625 C 5.59375 -6.1875 5.738281 -5.941406 5.84375 -5.671875 C 5.945312 -5.410156 6 -5.144531 6 -4.875 C 6 -4.53125 5.929688 -4.207031 5.796875 -3.90625 C 5.671875 -3.613281 5.488281 -3.363281 5.25 -3.15625 C 5.007812 -2.945312 4.734375 -2.8125 4.421875 -2.75 L 6.15625 0 L 5.375 0 L 3.703125 -2.625 L 1.59375 -2.625 L 1.59375 0 Z M 1.59375 -3.25 L 3.921875 -3.25 C 4.203125 -3.25 4.441406 -3.320312 4.640625 -3.46875 C 4.847656 -3.625 5.007812 -3.828125 5.125 -4.078125 C 5.238281 -4.328125 5.296875 -4.59375 5.296875 -4.875 C 5.296875 -5.164062 5.226562 -5.429688 5.09375 -5.671875 C 4.96875 -5.921875 4.796875 -6.117188 4.578125 -6.265625 C 4.359375 -6.410156 4.117188 -6.484375 3.859375 -6.484375 L 1.59375 -6.484375 Z M 1.59375 -3.25 "/></g></g></g><g fill="#212121" fill-opacity="1"><g transform="translate(212.490318, 333.083883)"><g><path d="M 7.1875 0 L 7.1875 -5.796875 L 4.625 -1.296875 L 4.171875 -1.296875 L 1.59375 -5.796875 L 1.59375 0 L 0.890625 0 L 0.890625 -7.109375 L 1.609375 -7.109375 L 4.390625 -2.25 L 7.1875 -7.109375 L 7.890625 -7.109375 L 7.890625 0 Z M 7.1875 0 "/></g></g></g><g fill="#212121" fill-opacity="1"><g transform="translate(221.645724, 333.083883)"><g><path d="M 3.09375 -7.109375 L 3.6875 -7.109375 L 6.640625 0 L 5.90625 0 L 4.984375 -2.21875 L 1.78125 -2.21875 L 0.875 0 L 0.125 0 Z M 4.8125 -2.78125 L 3.390625 -6.296875 L 1.9375 -2.78125 Z M 4.8125 -2.78125 "/></g></g></g></svg>